<svg xmlns="http://www.w3.org/2000/svg" viewBox="0 0 16 16"><defs><style>.icon-canvas-transparent,.icon-vs-out{fill:#f6f6f6;}.icon-canvas-transparent{opacity:0;}.icon-vs-bg{fill:#424242;}</style></defs><title>Share_16x</title><g id="canvas"><path class="icon-canvas-transparent" d="M16,0V16H0V0Z"/></g><g id="outline"><path class="icon-vs-out" d="M9.414,0H8.75V3.444a6.745,6.745,0,0,0-.9.187A7.132,7.132,0,0,0,3,8.214V4H0V15H13V9.539l2.977-2.976ZM8.75,12H4.413A7.719,7.719,0,0,1,5.5,11.087a7.81,7.81,0,0,1,1.32-.733A7.369,7.369,0,0,1,8.239,9.9c.169-.035.339-.063.511-.087Z"/></g><g id="iconBg"><path class="icon-vs-bg" d="M6.421,9.438a8.239,8.239,0,0,1,1.616-.514A8.48,8.48,0,0,1,9.75,8.75v2.625l4.813-4.812L9.75,1.75V4.375a6.034,6.034,0,0,0-1.631.219A6.135,6.135,0,0,0,3.844,8.869,6.039,6.039,0,0,0,3.625,10.5v.875a8.714,8.714,0,0,1,1.309-1.111A8.6,8.6,0,0,1,6.421,9.438Zm-1.614-.3A5.149,5.149,0,0,1,6.126,6.876a5.252,5.252,0,0,1,1.038-.8,5.166,5.166,0,0,1,1.225-.517A5.036,5.036,0,0,1,9.75,5.375h1V4.164l2.4,2.4-2.4,2.4V7.75h-1a9.264,9.264,0,0,0-3.729.771A9.747,9.747,0,0,0,4.8,9.156ZM11,12.25l1-.875V14H1V5H2v8h9Z"/></g></svg>